<svg xmlns="http://www.w3.org/2000/svg" width="96" height="96" viewBox="-48 -48 96 96">
<rect x="-26.75" y="-16.875" width="53.5" height="33.75" rx="5" fill="#59b224" stroke="silver" stroke-width="4" />
<g fill="none" stroke="#000" stroke-width="6">
<circle r="36" />
<line x1="48" y1="48" x2="24" y2="24" />
</g>
<g viewBox="0 0 264 76.5" transform="scale(0.166) translate(-132,-38.25)" fill="white">
<path d="M0 3.906 L44.043 3.906 L44.043 11.621 L9.375 11.621 L9.375 35.889 L39.209 35.889 L39.209 43.604 L9.375 43.604 L9.375 75 L0 75 L0 3.906 Z" />
<path d="M 51.025 48.535 Q 51.025 36.914 57.397 29.541 A 21.198 21.198 0 0 1 74.268 22.168 Q 84.766 22.168 90.43 29.053 A 21.441 21.441 0 0 1 91.361 30.272 A 29.399 29.399 0 0 1 96.094 47.656 L 96.094 51.367 L 56.592 51.367 L 56.592 44.141 L 86.963 44.141 L 86.963 42.969 Q 86.963 37.402 83.789 33.496 A 11.085 11.085 0 0 0 74.658 29.59 Q 67.432 29.59 63.867 35.083 A 24.196 24.196 0 0 0 60.303 48.535 L 60.303 50.098 Q 60.303 58.057 64.063 63.55 Q 67.822 69.043 75.732 69.043 A 15.797 15.797 0 0 0 84.131 66.895 A 20.176 20.176 0 0 0 89.844 61.816 L 95.703 66.455 Q 93.262 70.117 88.159 73.291 A 23.081 23.081 0 0 1 75.732 76.465 A 22.916 22.916 0 0 1 57.397 69.092 Q 51.025 61.719 51.025 50.098 L 51.025 48.535 Z" />
<path d="M 107.617 0 L 116.699 0 L 116.699 75 L 107.617 75 L 107.617 0 Z" />
<path d="M 131.982 23.633 L 141.064 23.633 L 141.064 75 L 131.982 75 L 131.982 23.633 Z M 130.859 8.105 A 5.426 5.426 0 0 1 132.324 4.248 A 5.477 5.477 0 0 1 136.523 2.686 Q 139.258 2.686 140.723 4.248 A 5.426 5.426 0 0 1 142.188 8.105 A 5.426 5.426 0 0 1 140.723 11.963 A 5.477 5.477 0 0 1 136.523 13.525 Q 133.789 13.525 132.324 11.963 A 5.426 5.426 0 0 1 130.859 8.105 Z" />
<path d="M 154.346 37.207 A 57.991 57.991 0 0 1 154.531 32.496 A 33.952 33.952 0 0 1 162.769 11.621 A 27.457 27.457 0 0 1 183.887 2.441 A 45.4 45.4 0 0 1 184.675 2.448 A 27.061 27.061 0 0 1 203.784 9.399 A 22.478 22.478 0 0 1 210.986 26.172 L 210.986 26.66 L 201.611 26.66 L 201.611 26.172 Q 201.611 19.385 197.217 14.917 A 12.351 12.351 0 0 0 196.65 14.376 A 18.545 18.545 0 0 0 183.887 10.449 Q 175.146 10.449 169.482 17.041 A 19.556 19.556 0 0 0 166.346 22.188 A 38.631 38.631 0 0 0 163.818 37.207 L 163.818 41.699 A 51.647 51.647 0 0 0 163.886 44.369 A 29.101 29.101 0 0 0 169.458 61.328 A 17.604 17.604 0 0 0 183.887 68.457 A 16.665 16.665 0 0 0 196.582 63.916 A 18.544 18.544 0 0 0 201.562 52.734 L 201.611 52.246 L 210.986 52.246 L 210.938 52.734 Q 209.961 62.5 203.271 69.482 A 20.157 20.157 0 0 1 200.795 71.676 A 27.518 27.518 0 0 1 183.887 76.465 Q 171.191 76.465 162.769 67.285 A 28.472 28.472 0 0 1 158.51 61.198 A 41.68 41.68 0 0 1 154.346 41.699 L 154.346 37.207 Z" />
<path d="M 255.225 75 Q 254.541 73.779 253.979 71.826 Q 253.418 69.873 253.271 67.92 Q 251.465 71.094 247.437 73.535 Q 243.408 75.977 237.061 75.977 A 19.157 19.157 0 0 1 224.609 71.826 A 14.497 14.497 0 0 1 219.482 59.863 Q 219.482 52.051 225.684 47.705 A 26.85 26.85 0 0 1 241.455 43.359 L 253.076 43.359 L 253.076 39.844 A 11.481 11.481 0 0 0 250.684 32.3 A 10.165 10.165 0 0 0 242.432 29.395 Q 236.572 29.395 234.058 31.812 A 7.537 7.537 0 0 0 231.543 37.402 L 231.543 37.646 L 222.51 37.646 L 222.51 37.402 Q 222.51 31.299 227.954 26.733 A 22.187 22.187 0 0 1 242.676 22.168 A 38.127 38.127 0 0 1 242.712 22.168 A 21.185 21.185 0 0 1 257.056 26.611 A 16.604 16.604 0 0 1 262.158 39.844 L 262.158 63.281 A 34.907 34.907 0 0 0 262.646 69.263 A 23.953 23.953 0 0 0 264.014 74.219 L 264.014 75 L 255.225 75 Z M 242.432 49.805 Q 235.596 49.805 232.08 52.393 Q 228.564 54.98 228.564 59.375 A 9.202 9.202 0 0 0 231.104 66.26 A 10.926 10.926 0 0 0 239.014 68.75 A 14.589 14.589 0 0 0 248.73 65.039 A 10.465 10.465 0 0 0 253.076 57.178 L 253.076 49.805 L 242.432 49.805 Z" />
</g>
</svg>